<mxfile host="drawio-plugin" modified="2022-02-01T18:13:31.909Z" agent="5.0 (X11; Linux x86_64) AppleWebKit/537.36 (KHTML, like Gecko) Chrome/89.0.4389.114 Safari/537.36" etag="CfpDIc8SLmVA4_t-axtJ" version="15.5.4" type="embed"><diagram id="c28QnHroAq6EwUY4SsP_" name="Page-1"><mxGraphModel dx="896" dy="3986" grid="1" gridSize="10" guides="1" tooltips="1" connect="1" arrows="1" fold="1" page="1" pageScale="1" pageWidth="2339" pageHeight="3300" math="0" shadow="0"><root><mxCell id="0"/><mxCell id="1" parent="0"/><mxCell id="hoCRfOwyR8ru-IddkG8W-19" value="Branch" style="swimlane;fontStyle=0;childLayout=stackLayout;horizontal=1;startSize=26;horizontalStack=0;resizeParent=1;resizeParentMax=0;resizeLast=0;collapsible=1;marginBottom=0;align=center;fontSize=14;" parent="1" vertex="1"><mxGeometry x="1240" y="40" width="160" height="86" as="geometry"/></mxCell><mxCell id="QZWZNDZkbE295jT6XIFR-11" value="&lt;u&gt;branch_id&lt;/u&gt;" style="text;html=1;resizable=0;autosize=1;align=left;verticalAlign=middle;points=[];fillColor=none;strokeColor=none;rounded=0;" parent="hoCRfOwyR8ru-IddkG8W-19" vertex="1"><mxGeometry y="26" width="160" height="20" as="geometry"/></mxCell><mxCell id="QZWZNDZkbE295jT6XIFR-10" value="city" style="text;html=1;resizable=0;autosize=1;align=left;verticalAlign=middle;points=[];fillColor=none;strokeColor=none;rounded=0;" parent="hoCRfOwyR8ru-IddkG8W-19" vertex="1"><mxGeometry y="46" width="160" height="20" as="geometry"/></mxCell><mxCell id="QZWZNDZkbE295jT6XIFR-12" value="branchM_id" style="text;html=1;resizable=0;autosize=1;align=left;verticalAlign=middle;points=[];fillColor=none;strokeColor=none;rounded=0;" parent="hoCRfOwyR8ru-IddkG8W-19" vertex="1"><mxGeometry y="66" width="160" height="20" as="geometry"/></mxCell><mxCell id="hoCRfOwyR8ru-IddkG8W-27" value="Appointment" style="swimlane;fontStyle=0;childLayout=stackLayout;horizontal=1;startSize=26;horizontalStack=0;resizeParent=1;resizeParentMax=0;resizeLast=0;collapsible=1;marginBottom=0;align=center;fontSize=14;swimlaneFillColor=none;" parent="1" vertex="1"><mxGeometry x="400" width="160" height="206" as="geometry"/></mxCell><mxCell id="hoCRfOwyR8ru-IddkG8W-126" value="&lt;u&gt;appointment_id&lt;/u&gt;" style="text;html=1;resizable=0;autosize=1;align=left;verticalAlign=middle;points=[];fillColor=none;strokeColor=none;rounded=0;" parent="hoCRfOwyR8ru-IddkG8W-27" vertex="1"><mxGeometry y="26" width="160" height="20" as="geometry"/></mxCell><mxCell id="hoCRfOwyR8ru-IddkG8W-134" value="patient_id" style="text;html=1;resizable=0;autosize=1;align=left;verticalAlign=middle;points=[];fillColor=none;strokeColor=none;rounded=0;" parent="hoCRfOwyR8ru-IddkG8W-27" vertex="1"><mxGeometry y="46" width="160" height="20" as="geometry"/></mxCell><mxCell id="hoCRfOwyR8ru-IddkG8W-144" value="date" style="text;html=1;resizable=0;autosize=1;align=left;verticalAlign=middle;points=[];fillColor=none;strokeColor=none;rounded=0;" parent="hoCRfOwyR8ru-IddkG8W-27" vertex="1"><mxGeometry y="66" width="160" height="20" as="geometry"/></mxCell><mxCell id="hoCRfOwyR8ru-IddkG8W-135" value="dentist_id" style="text;html=1;resizable=0;autosize=1;align=left;verticalAlign=middle;points=[];fillColor=none;strokeColor=none;rounded=0;" parent="hoCRfOwyR8ru-IddkG8W-27" vertex="1"><mxGeometry y="86" width="160" height="20" as="geometry"/></mxCell><mxCell id="hoCRfOwyR8ru-IddkG8W-145" value="start_time" style="text;html=1;resizable=0;autosize=1;align=left;verticalAlign=middle;points=[];fillColor=none;strokeColor=none;rounded=0;" parent="hoCRfOwyR8ru-IddkG8W-27" vertex="1"><mxGeometry y="106" width="160" height="20" as="geometry"/></mxCell><mxCell id="QZWZNDZkbE295jT6XIFR-24" value="end_time" style="text;html=1;resizable=0;autosize=1;align=left;verticalAlign=middle;points=[];fillColor=none;strokeColor=none;rounded=0;" parent="hoCRfOwyR8ru-IddkG8W-27" vertex="1"><mxGeometry y="126" width="160" height="20" as="geometry"/></mxCell><mxCell id="hoCRfOwyR8ru-IddkG8W-146" value="procedure_type" style="text;html=1;resizable=0;autosize=1;align=left;verticalAlign=middle;points=[];fillColor=none;strokeColor=none;rounded=0;" parent="hoCRfOwyR8ru-IddkG8W-27" vertex="1"><mxGeometry y="146" width="160" height="20" as="geometry"/></mxCell><mxCell id="hoCRfOwyR8ru-IddkG8W-148" value="status" style="text;html=1;resizable=0;autosize=1;align=left;verticalAlign=middle;points=[];fillColor=none;strokeColor=none;rounded=0;" parent="hoCRfOwyR8ru-IddkG8W-27" vertex="1"><mxGeometry y="166" width="160" height="20" as="geometry"/></mxCell><mxCell id="hoCRfOwyR8ru-IddkG8W-149" value="room_assigned" style="text;html=1;resizable=0;autosize=1;align=left;verticalAlign=middle;points=[];fillColor=none;strokeColor=none;rounded=0;" parent="hoCRfOwyR8ru-IddkG8W-27" vertex="1"><mxGeometry y="186" width="160" height="20" as="geometry"/></mxCell><mxCell id="hoCRfOwyR8ru-IddkG8W-31" value="Appointement_Procedure" style="swimlane;fontStyle=0;childLayout=stackLayout;horizontal=1;startSize=26;horizontalStack=0;resizeParent=1;resizeParentMax=0;resizeLast=0;collapsible=1;marginBottom=0;align=center;fontSize=14;" parent="1" vertex="1"><mxGeometry x="690" width="180" height="286" as="geometry"/></mxCell><mxCell id="QZWZNDZkbE295jT6XIFR-14" value="&lt;u style=&quot;color: rgb(0, 0, 0); font-family: helvetica; font-size: 12px; font-style: normal; font-weight: 400; letter-spacing: normal; text-align: left; text-indent: 0px; text-transform: none; word-spacing: 0px; background-color: rgb(248, 249, 250);&quot;&gt;appointment_id&lt;/u&gt;" style="text;whiteSpace=wrap;html=1;" parent="hoCRfOwyR8ru-IddkG8W-31" vertex="1"><mxGeometry y="26" width="180" height="30" as="geometry"/></mxCell><mxCell id="QZWZNDZkbE295jT6XIFR-70" value="&lt;u style=&quot;color: rgb(0 , 0 , 0) ; font-family: &amp;#34;helvetica&amp;#34; ; font-size: 12px ; font-style: normal ; font-weight: 400 ; letter-spacing: normal ; text-align: left ; text-indent: 0px ; text-transform: none ; word-spacing: 0px ; background-color: rgb(248 , 249 , 250)&quot;&gt;appointment_procedure_id&lt;/u&gt;" style="text;whiteSpace=wrap;html=1;" parent="hoCRfOwyR8ru-IddkG8W-31" vertex="1"><mxGeometry y="56" width="180" height="30" as="geometry"/></mxCell><mxCell id="QZWZNDZkbE295jT6XIFR-16" value="invoice_id" style="text;html=1;resizable=0;autosize=1;align=left;verticalAlign=middle;points=[];fillColor=none;strokeColor=none;rounded=0;" parent="hoCRfOwyR8ru-IddkG8W-31" vertex="1"><mxGeometry y="86" width="180" height="20" as="geometry"/></mxCell><mxCell id="QZWZNDZkbE295jT6XIFR-15" value="patient_id" style="text;html=1;resizable=0;autosize=1;align=left;verticalAlign=middle;points=[];fillColor=none;strokeColor=none;rounded=0;" parent="hoCRfOwyR8ru-IddkG8W-31" vertex="1"><mxGeometry y="106" width="180" height="20" as="geometry"/></mxCell><mxCell id="cwzBD0Sbq_DCRRP-pXD1-22" value="procedure code" style="text;html=1;resizable=0;autosize=1;align=left;verticalAlign=middle;points=[];fillColor=none;strokeColor=none;rounded=0;" parent="hoCRfOwyR8ru-IddkG8W-31" vertex="1"><mxGeometry y="126" width="180" height="20" as="geometry"/></mxCell><mxCell id="QZWZNDZkbE295jT6XIFR-20" value="tooth_involved" style="text;html=1;resizable=0;autosize=1;align=left;verticalAlign=middle;points=[];fillColor=none;strokeColor=none;rounded=0;" parent="hoCRfOwyR8ru-IddkG8W-31" vertex="1"><mxGeometry y="146" width="180" height="20" as="geometry"/></mxCell><mxCell id="QZWZNDZkbE295jT6XIFR-21" value="amount_of_procedure" style="text;html=1;resizable=0;autosize=1;align=left;verticalAlign=middle;points=[];fillColor=none;strokeColor=none;rounded=0;" parent="hoCRfOwyR8ru-IddkG8W-31" vertex="1"><mxGeometry y="166" width="180" height="20" as="geometry"/></mxCell><mxCell id="QZWZNDZkbE295jT6XIFR-22" value="patient_charge" style="text;html=1;resizable=0;autosize=1;align=left;verticalAlign=middle;points=[];fillColor=none;strokeColor=none;rounded=0;" parent="hoCRfOwyR8ru-IddkG8W-31" vertex="1"><mxGeometry y="186" width="180" height="20" as="geometry"/></mxCell><mxCell id="QZWZNDZkbE295jT6XIFR-23" value="insurance_charge" style="text;html=1;resizable=0;autosize=1;align=left;verticalAlign=middle;points=[];fillColor=none;strokeColor=none;rounded=0;" parent="hoCRfOwyR8ru-IddkG8W-31" vertex="1"><mxGeometry y="206" width="180" height="20" as="geometry"/></mxCell><mxCell id="QZWZNDZkbE295jT6XIFR-25" value="total_charge" style="text;html=1;resizable=0;autosize=1;align=left;verticalAlign=middle;points=[];fillColor=none;strokeColor=none;rounded=0;" parent="hoCRfOwyR8ru-IddkG8W-31" vertex="1"><mxGeometry y="226" width="180" height="20" as="geometry"/></mxCell><mxCell id="QZWZNDZkbE295jT6XIFR-26" value="insurance_claim_id" style="text;html=1;resizable=0;autosize=1;align=left;verticalAlign=middle;points=[];fillColor=none;strokeColor=none;rounded=0;" parent="hoCRfOwyR8ru-IddkG8W-31" vertex="1"><mxGeometry y="246" width="180" height="20" as="geometry"/></mxCell><mxCell id="QZWZNDZkbE295jT6XIFR-29" value="cancel()" style="text;html=1;resizable=0;autosize=1;align=left;verticalAlign=middle;points=[];fillColor=none;strokeColor=none;rounded=0;" parent="hoCRfOwyR8ru-IddkG8W-31" vertex="1"><mxGeometry y="266" width="180" height="20" as="geometry"/></mxCell><mxCell id="hoCRfOwyR8ru-IddkG8W-37" value="Treatment" style="swimlane;fontStyle=0;childLayout=stackLayout;horizontal=1;startSize=26;horizontalStack=0;resizeParent=1;resizeParentMax=0;resizeLast=0;collapsible=1;marginBottom=0;align=center;fontSize=14;" parent="1" vertex="1"><mxGeometry x="400" y="270" width="160" height="106" as="geometry"/></mxCell><mxCell id="hoCRfOwyR8ru-IddkG8W-150" value="&lt;u&gt;treatment_id&lt;/u&gt;" style="text;html=1;resizable=0;autosize=1;align=left;verticalAlign=middle;points=[];fillColor=none;strokeColor=none;rounded=0;" parent="hoCRfOwyR8ru-IddkG8W-37" vertex="1"><mxGeometry y="26" width="160" height="20" as="geometry"/></mxCell><mxCell id="hoCRfOwyR8ru-IddkG8W-152" value="procedure_type" style="text;html=1;resizable=0;autosize=1;align=left;verticalAlign=middle;points=[];fillColor=none;strokeColor=none;rounded=0;" parent="hoCRfOwyR8ru-IddkG8W-37" vertex="1"><mxGeometry y="46" width="160" height="20" as="geometry"/></mxCell><mxCell id="hoCRfOwyR8ru-IddkG8W-151" value="treatment_type" style="text;html=1;resizable=0;autosize=1;align=left;verticalAlign=middle;points=[];fillColor=none;strokeColor=none;rounded=0;" parent="hoCRfOwyR8ru-IddkG8W-37" vertex="1"><mxGeometry y="66" width="160" height="20" as="geometry"/></mxCell><mxCell id="hoCRfOwyR8ru-IddkG8W-153" value="treatment_details" style="text;html=1;resizable=0;autosize=1;align=left;verticalAlign=middle;points=[];fillColor=none;strokeColor=none;rounded=0;" parent="hoCRfOwyR8ru-IddkG8W-37" vertex="1"><mxGeometry y="86" width="160" height="20" as="geometry"/></mxCell><mxCell id="hoCRfOwyR8ru-IddkG8W-41" value="Fee_Charge" style="swimlane;fontStyle=0;childLayout=stackLayout;horizontal=1;startSize=26;horizontalStack=0;resizeParent=1;resizeParentMax=0;resizeLast=0;collapsible=1;marginBottom=0;align=center;fontSize=14;" parent="1" vertex="1"><mxGeometry x="680" y="320" width="160" height="106" as="geometry"/></mxCell><mxCell id="QZWZNDZkbE295jT6XIFR-1" value="&lt;u&gt;fee_id&lt;/u&gt;" style="text;html=1;resizable=0;autosize=1;align=left;verticalAlign=middle;points=[];fillColor=none;strokeColor=none;rounded=0;" parent="hoCRfOwyR8ru-IddkG8W-41" vertex="1"><mxGeometry y="26" width="160" height="20" as="geometry"/></mxCell><mxCell id="QZWZNDZkbE295jT6XIFR-2" value="procedure_id" style="text;html=1;resizable=0;autosize=1;align=left;verticalAlign=middle;points=[];fillColor=none;strokeColor=none;rounded=0;" parent="hoCRfOwyR8ru-IddkG8W-41" vertex="1"><mxGeometry y="46" width="160" height="20" as="geometry"/></mxCell><mxCell id="QZWZNDZkbE295jT6XIFR-3" value="fee_code" style="text;html=1;resizable=0;autosize=1;align=left;verticalAlign=middle;points=[];fillColor=none;strokeColor=none;rounded=0;" parent="hoCRfOwyR8ru-IddkG8W-41" vertex="1"><mxGeometry y="66" width="160" height="20" as="geometry"/></mxCell><mxCell id="QZWZNDZkbE295jT6XIFR-4" value="charge" style="text;html=1;resizable=0;autosize=1;align=left;verticalAlign=middle;points=[];fillColor=none;strokeColor=none;rounded=0;" parent="hoCRfOwyR8ru-IddkG8W-41" vertex="1"><mxGeometry y="86" width="160" height="20" as="geometry"/></mxCell><mxCell id="sZGIaEHO4kWOmMPaX-Y7-1" style="edgeStyle=orthogonalEdgeStyle;rounded=0;orthogonalLoop=1;jettySize=auto;html=1;exitX=0.5;exitY=0;exitDx=0;exitDy=0;entryX=0.498;entryY=0.979;entryDx=0;entryDy=0;entryPerimeter=0;endArrow=ERmandOne;endFill=0;startArrow=ERoneToMany;startFill=0;" parent="1" source="hoCRfOwyR8ru-IddkG8W-49" target="QZWZNDZkbE295jT6XIFR-12" edge="1"><mxGeometry relative="1" as="geometry"/></mxCell><mxCell id="cwzBD0Sbq_DCRRP-pXD1-50" value="Is in" style="edgeLabel;html=1;align=center;verticalAlign=middle;resizable=0;points=[];" parent="sZGIaEHO4kWOmMPaX-Y7-1" vertex="1" connectable="0"><mxGeometry x="0.2712" y="-3" relative="1" as="geometry"><mxPoint as="offset"/></mxGeometry></mxCell><mxCell id="hoCRfOwyR8ru-IddkG8W-49" value="Employee" style="swimlane;fontStyle=0;childLayout=stackLayout;horizontal=1;startSize=26;horizontalStack=0;resizeParent=1;resizeParentMax=0;resizeLast=0;collapsible=1;marginBottom=0;align=center;fontSize=14;" parent="1" vertex="1"><mxGeometry x="1240" y="250" width="160" height="396" as="geometry"/></mxCell><mxCell id="hoCRfOwyR8ru-IddkG8W-61" value="&lt;u&gt;SSN&lt;/u&gt;" style="text;html=1;resizable=0;autosize=1;align=left;verticalAlign=middle;points=[];fillColor=none;strokeColor=none;rounded=0;" parent="hoCRfOwyR8ru-IddkG8W-49" vertex="1"><mxGeometry y="26" width="160" height="20" as="geometry"/></mxCell><mxCell id="hoCRfOwyR8ru-IddkG8W-132" value="b_date" style="text;html=1;resizable=0;autosize=1;align=left;verticalAlign=middle;points=[];fillColor=none;strokeColor=none;rounded=0;" parent="hoCRfOwyR8ru-IddkG8W-49" vertex="1"><mxGeometry y="46" width="160" height="20" as="geometry"/></mxCell><mxCell id="hoCRfOwyR8ru-IddkG8W-133" value="name" style="text;html=1;resizable=0;autosize=1;align=left;verticalAlign=middle;points=[];fillColor=none;strokeColor=none;rounded=0;" parent="hoCRfOwyR8ru-IddkG8W-49" vertex="1"><mxGeometry y="66" width="160" height="20" as="geometry"/></mxCell><mxCell id="hoCRfOwyR8ru-IddkG8W-62" value="&lt;span style=&quot;white-space: pre&quot;&gt;&#9;&lt;/span&gt;f_name" style="text;html=1;resizable=0;autosize=1;align=left;verticalAlign=middle;points=[];fillColor=none;strokeColor=none;rounded=0;" parent="hoCRfOwyR8ru-IddkG8W-49" vertex="1"><mxGeometry y="86" width="160" height="20" as="geometry"/></mxCell><mxCell id="hoCRfOwyR8ru-IddkG8W-64" value="&lt;span style=&quot;color: rgb(0 , 0 , 0) ; font-family: &amp;#34;helvetica&amp;#34; ; font-size: 12px ; font-style: normal ; font-weight: 400 ; letter-spacing: normal ; text-align: center ; text-indent: 0px ; text-transform: none ; word-spacing: 0px ; background-color: rgb(248 , 249 , 250) ; display: inline ; float: none&quot;&gt;&lt;span style=&quot;white-space: pre&quot;&gt;&#9;&lt;/span&gt;m_name&lt;/span&gt;" style="text;whiteSpace=wrap;html=1;" parent="hoCRfOwyR8ru-IddkG8W-49" vertex="1"><mxGeometry y="106" width="160" height="30" as="geometry"/></mxCell><mxCell id="hoCRfOwyR8ru-IddkG8W-66" value="&lt;span style=&quot;color: rgb(0 , 0 , 0) ; font-family: &amp;#34;helvetica&amp;#34; ; font-size: 12px ; font-style: normal ; font-weight: 400 ; letter-spacing: normal ; text-align: center ; text-indent: 0px ; text-transform: none ; word-spacing: 0px ; background-color: rgb(248 , 249 , 250) ; display: inline ; float: none&quot;&gt;&lt;span style=&quot;white-space: pre&quot;&gt;&#9;&lt;/span&gt;l_name&lt;/span&gt;" style="text;whiteSpace=wrap;html=1;" parent="hoCRfOwyR8ru-IddkG8W-49" vertex="1"><mxGeometry y="136" width="160" height="30" as="geometry"/></mxCell><mxCell id="hoCRfOwyR8ru-IddkG8W-63" value="&lt;span style=&quot;color: rgb(0 , 0 , 0) ; font-family: &amp;#34;helvetica&amp;#34; ; font-size: 12px ; font-style: normal ; font-weight: 400 ; letter-spacing: normal ; text-align: center ; text-indent: 0px ; text-transform: none ; word-spacing: 0px ; background-color: rgb(248 , 249 , 250) ; display: inline ; float: none&quot;&gt;address&lt;/span&gt;" style="text;whiteSpace=wrap;html=1;" parent="hoCRfOwyR8ru-IddkG8W-49" vertex="1"><mxGeometry y="166" width="160" height="30" as="geometry"/></mxCell><mxCell id="hoCRfOwyR8ru-IddkG8W-111" value="&lt;span style=&quot;white-space: pre&quot;&gt;&#9;&lt;/span&gt;house_number" style="text;html=1;resizable=0;autosize=1;align=left;verticalAlign=middle;points=[];fillColor=none;strokeColor=none;rounded=0;" parent="hoCRfOwyR8ru-IddkG8W-49" vertex="1"><mxGeometry y="196" width="160" height="20" as="geometry"/></mxCell><mxCell id="hoCRfOwyR8ru-IddkG8W-112" value="&lt;span style=&quot;white-space: pre&quot;&gt;&#9;&lt;/span&gt;street" style="text;html=1;resizable=0;autosize=1;align=left;verticalAlign=middle;points=[];fillColor=none;strokeColor=none;rounded=0;" parent="hoCRfOwyR8ru-IddkG8W-49" vertex="1"><mxGeometry y="216" width="160" height="20" as="geometry"/></mxCell><mxCell id="hoCRfOwyR8ru-IddkG8W-113" value="&lt;span style=&quot;white-space: pre&quot;&gt;&#9;&lt;/span&gt;city" style="text;html=1;resizable=0;autosize=1;align=left;verticalAlign=middle;points=[];fillColor=none;strokeColor=none;rounded=0;" parent="hoCRfOwyR8ru-IddkG8W-49" vertex="1"><mxGeometry y="236" width="160" height="20" as="geometry"/></mxCell><mxCell id="hoCRfOwyR8ru-IddkG8W-115" value="&lt;span style=&quot;white-space: pre&quot;&gt;&#9;&lt;/span&gt;province" style="text;html=1;resizable=0;autosize=1;align=left;verticalAlign=middle;points=[];fillColor=none;strokeColor=none;rounded=0;" parent="hoCRfOwyR8ru-IddkG8W-49" vertex="1"><mxGeometry y="256" width="160" height="20" as="geometry"/></mxCell><mxCell id="hoCRfOwyR8ru-IddkG8W-68" value="&lt;span style=&quot;color: rgb(0 , 0 , 0) ; font-family: &amp;#34;helvetica&amp;#34; ; font-size: 12px ; font-style: normal ; font-weight: 400 ; letter-spacing: normal ; text-align: center ; text-indent: 0px ; text-transform: none ; word-spacing: 0px ; background-color: rgb(248 , 249 , 250) ; display: inline ; float: none&quot;&gt;salary&lt;/span&gt;" style="text;whiteSpace=wrap;html=1;" parent="hoCRfOwyR8ru-IddkG8W-49" vertex="1"><mxGeometry y="276" width="160" height="30" as="geometry"/></mxCell><mxCell id="hoCRfOwyR8ru-IddkG8W-67" value="&lt;span style=&quot;color: rgb(0 , 0 , 0) ; font-family: &amp;#34;helvetica&amp;#34; ; font-size: 12px ; font-style: normal ; font-weight: 400 ; letter-spacing: normal ; text-align: center ; text-indent: 0px ; text-transform: none ; word-spacing: 0px ; background-color: rgb(248 , 249 , 250) ; display: inline ; float: none&quot;&gt;employee_type&lt;/span&gt;" style="text;whiteSpace=wrap;html=1;" parent="hoCRfOwyR8ru-IddkG8W-49" vertex="1"><mxGeometry y="306" width="160" height="30" as="geometry"/></mxCell><mxCell id="hoCRfOwyR8ru-IddkG8W-69" value="&lt;span style=&quot;color: rgb(0 , 0 , 0) ; font-family: &amp;#34;helvetica&amp;#34; ; font-size: 12px ; font-style: normal ; font-weight: 400 ; letter-spacing: normal ; text-align: center ; text-indent: 0px ; text-transform: none ; word-spacing: 0px ; background-color: rgb(248 , 249 , 250) ; display: inline ; float: none&quot;&gt;role&lt;/span&gt;" style="text;whiteSpace=wrap;html=1;" parent="hoCRfOwyR8ru-IddkG8W-49" vertex="1"><mxGeometry y="336" width="160" height="30" as="geometry"/></mxCell><mxCell id="hoCRfOwyR8ru-IddkG8W-70" value="&lt;span style=&quot;color: rgb(0 , 0 , 0) ; font-family: &amp;#34;helvetica&amp;#34; ; font-size: 12px ; font-style: normal ; font-weight: 400 ; letter-spacing: normal ; text-align: center ; text-indent: 0px ; text-transform: none ; word-spacing: 0px ; background-color: rgb(248 , 249 , 250) ; display: inline ; float: none&quot;&gt;gender&lt;/span&gt;" style="text;whiteSpace=wrap;html=1;" parent="hoCRfOwyR8ru-IddkG8W-49" vertex="1"><mxGeometry y="366" width="160" height="30" as="geometry"/></mxCell><mxCell id="hoCRfOwyR8ru-IddkG8W-72" value="Patient" style="swimlane;fontStyle=0;childLayout=stackLayout;horizontal=1;startSize=26;horizontalStack=0;resizeParent=1;resizeParentMax=0;resizeLast=0;collapsible=1;marginBottom=0;align=center;fontSize=14;" parent="1" vertex="1"><mxGeometry width="160" height="416" as="geometry"/></mxCell><mxCell id="hoCRfOwyR8ru-IddkG8W-73" value="&lt;u&gt;SSN&lt;/u&gt;" style="text;html=1;resizable=0;autosize=1;align=left;verticalAlign=middle;points=[];fillColor=none;strokeColor=none;rounded=0;" parent="hoCRfOwyR8ru-IddkG8W-72" vertex="1"><mxGeometry y="26" width="160" height="20" as="geometry"/></mxCell><mxCell id="hoCRfOwyR8ru-IddkG8W-130" value="b_date" style="text;html=1;resizable=0;autosize=1;align=left;verticalAlign=middle;points=[];fillColor=none;strokeColor=none;rounded=0;" parent="hoCRfOwyR8ru-IddkG8W-72" vertex="1"><mxGeometry y="46" width="160" height="20" as="geometry"/></mxCell><mxCell id="hoCRfOwyR8ru-IddkG8W-131" value="name" style="text;html=1;resizable=0;autosize=1;align=left;verticalAlign=middle;points=[];fillColor=none;strokeColor=none;rounded=0;" parent="hoCRfOwyR8ru-IddkG8W-72" vertex="1"><mxGeometry y="66" width="160" height="20" as="geometry"/></mxCell><mxCell id="hoCRfOwyR8ru-IddkG8W-76" value="&lt;span style=&quot;white-space: pre&quot;&gt;&#9;&lt;/span&gt;f_name" style="text;html=1;resizable=0;autosize=1;align=left;verticalAlign=middle;points=[];fillColor=none;strokeColor=none;rounded=0;" parent="hoCRfOwyR8ru-IddkG8W-72" vertex="1"><mxGeometry y="86" width="160" height="20" as="geometry"/></mxCell><mxCell id="hoCRfOwyR8ru-IddkG8W-77" value="&lt;span style=&quot;color: rgb(0 , 0 , 0) ; font-family: &amp;#34;helvetica&amp;#34; ; font-size: 12px ; font-style: normal ; font-weight: 400 ; letter-spacing: normal ; text-align: center ; text-indent: 0px ; text-transform: none ; word-spacing: 0px ; background-color: rgb(248 , 249 , 250) ; display: inline ; float: none&quot;&gt;&lt;span style=&quot;white-space: pre&quot;&gt;&#9;&lt;/span&gt;m_name&lt;/span&gt;" style="text;whiteSpace=wrap;html=1;" parent="hoCRfOwyR8ru-IddkG8W-72" vertex="1"><mxGeometry y="106" width="160" height="30" as="geometry"/></mxCell><mxCell id="hoCRfOwyR8ru-IddkG8W-78" value="&lt;span style=&quot;color: rgb(0 , 0 , 0) ; font-family: &amp;#34;helvetica&amp;#34; ; font-size: 12px ; font-style: normal ; font-weight: 400 ; letter-spacing: normal ; text-align: center ; text-indent: 0px ; text-transform: none ; word-spacing: 0px ; background-color: rgb(248 , 249 , 250) ; display: inline ; float: none&quot;&gt;&lt;span style=&quot;white-space: pre&quot;&gt;&#9;&lt;/span&gt;l_name&lt;/span&gt;" style="text;whiteSpace=wrap;html=1;" parent="hoCRfOwyR8ru-IddkG8W-72" vertex="1"><mxGeometry y="136" width="160" height="30" as="geometry"/></mxCell><mxCell id="hoCRfOwyR8ru-IddkG8W-79" value="&lt;span style=&quot;color: rgb(0 , 0 , 0) ; font-family: &amp;#34;helvetica&amp;#34; ; font-size: 12px ; font-style: normal ; font-weight: 400 ; letter-spacing: normal ; text-align: center ; text-indent: 0px ; text-transform: none ; word-spacing: 0px ; background-color: rgb(248 , 249 , 250) ; display: inline ; float: none&quot;&gt;address&lt;/span&gt;" style="text;whiteSpace=wrap;html=1;" parent="hoCRfOwyR8ru-IddkG8W-72" vertex="1"><mxGeometry y="166" width="160" height="30" as="geometry"/></mxCell><mxCell id="hoCRfOwyR8ru-IddkG8W-125" value="&lt;span style=&quot;white-space: pre&quot;&gt;&#9;&lt;/span&gt;province" style="text;html=1;resizable=0;autosize=1;align=left;verticalAlign=middle;points=[];fillColor=none;strokeColor=none;rounded=0;" parent="hoCRfOwyR8ru-IddkG8W-72" vertex="1"><mxGeometry y="196" width="160" height="20" as="geometry"/></mxCell><mxCell id="hoCRfOwyR8ru-IddkG8W-123" value="&lt;span style=&quot;white-space: pre&quot;&gt;&#9;&lt;/span&gt;street" style="text;html=1;resizable=0;autosize=1;align=left;verticalAlign=middle;points=[];fillColor=none;strokeColor=none;rounded=0;" parent="hoCRfOwyR8ru-IddkG8W-72" vertex="1"><mxGeometry y="216" width="160" height="20" as="geometry"/></mxCell><mxCell id="hoCRfOwyR8ru-IddkG8W-122" value="&lt;span style=&quot;white-space: pre&quot;&gt;&#9;&lt;/span&gt;house_number" style="text;html=1;resizable=0;autosize=1;align=left;verticalAlign=middle;points=[];fillColor=none;strokeColor=none;rounded=0;" parent="hoCRfOwyR8ru-IddkG8W-72" vertex="1"><mxGeometry y="236" width="160" height="20" as="geometry"/></mxCell><mxCell id="hoCRfOwyR8ru-IddkG8W-124" value="&lt;span style=&quot;white-space: pre&quot;&gt;&#9;&lt;/span&gt;city" style="text;html=1;resizable=0;autosize=1;align=left;verticalAlign=middle;points=[];fillColor=none;strokeColor=none;rounded=0;" parent="hoCRfOwyR8ru-IddkG8W-72" vertex="1"><mxGeometry y="256" width="160" height="20" as="geometry"/></mxCell><mxCell id="hoCRfOwyR8ru-IddkG8W-80" value="&lt;span style=&quot;color: rgb(0 , 0 , 0) ; font-family: &amp;#34;helvetica&amp;#34; ; font-size: 12px ; font-style: normal ; font-weight: 400 ; letter-spacing: normal ; text-align: center ; text-indent: 0px ; text-transform: none ; word-spacing: 0px ; background-color: rgb(248 , 249 , 250) ; display: inline ; float: none&quot;&gt;insurance&lt;/span&gt;" style="text;whiteSpace=wrap;html=1;" parent="hoCRfOwyR8ru-IddkG8W-72" vertex="1"><mxGeometry y="276" width="160" height="30" as="geometry"/></mxCell><mxCell id="hoCRfOwyR8ru-IddkG8W-81" value="&lt;span style=&quot;color: rgb(0 , 0 , 0) ; font-family: &amp;#34;helvetica&amp;#34; ; font-size: 12px ; font-style: normal ; font-weight: 400 ; letter-spacing: normal ; text-align: center ; text-indent: 0px ; text-transform: none ; word-spacing: 0px ; background-color: rgb(248 , 249 , 250) ; display: inline ; float: none&quot;&gt;email&lt;/span&gt;" style="text;whiteSpace=wrap;html=1;" parent="hoCRfOwyR8ru-IddkG8W-72" vertex="1"><mxGeometry y="306" width="160" height="30" as="geometry"/></mxCell><mxCell id="hoCRfOwyR8ru-IddkG8W-82" value="&lt;div style=&quot;text-align: center&quot;&gt;&lt;span&gt;&lt;font face=&quot;helvetica&quot;&gt;{phone_numbers}&lt;/font&gt;&lt;/span&gt;&lt;/div&gt;" style="text;whiteSpace=wrap;html=1;" parent="hoCRfOwyR8ru-IddkG8W-72" vertex="1"><mxGeometry y="336" width="160" height="30" as="geometry"/></mxCell><mxCell id="hoCRfOwyR8ru-IddkG8W-83" value="&lt;span style=&quot;color: rgb(0 , 0 , 0) ; font-family: &amp;#34;helvetica&amp;#34; ; font-size: 12px ; font-style: normal ; font-weight: 400 ; letter-spacing: normal ; text-align: center ; text-indent: 0px ; text-transform: none ; word-spacing: 0px ; background-color: rgb(248 , 249 , 250) ; display: inline ; float: none&quot;&gt;gender&lt;/span&gt;" style="text;whiteSpace=wrap;html=1;" parent="hoCRfOwyR8ru-IddkG8W-72" vertex="1"><mxGeometry y="366" width="160" height="30" as="geometry"/></mxCell><mxCell id="hoCRfOwyR8ru-IddkG8W-96" value="age()" style="text;html=1;resizable=0;autosize=1;align=left;verticalAlign=middle;points=[];fillColor=none;strokeColor=none;rounded=0;" parent="hoCRfOwyR8ru-IddkG8W-72" vertex="1"><mxGeometry y="396" width="160" height="20" as="geometry"/></mxCell><mxCell id="QZWZNDZkbE295jT6XIFR-49" value="Insurance_Claim" style="swimlane;fontStyle=0;childLayout=stackLayout;horizontal=1;startSize=26;horizontalStack=0;resizeParent=1;resizeParentMax=0;resizeLast=0;collapsible=1;marginBottom=0;align=center;fontSize=14;" parent="1" vertex="1"><mxGeometry x="950" y="390" width="160" height="46" as="geometry"/></mxCell><mxCell id="QZWZNDZkbE295jT6XIFR-50" value="&lt;u&gt;insurance_claim_id&lt;/u&gt;" style="text;html=1;resizable=0;autosize=1;align=left;verticalAlign=middle;points=[];fillColor=none;strokeColor=none;rounded=0;" parent="QZWZNDZkbE295jT6XIFR-49" vertex="1"><mxGeometry y="26" width="160" height="20" as="geometry"/></mxCell><mxCell id="QZWZNDZkbE295jT6XIFR-54" value="Review" style="swimlane;fontStyle=0;childLayout=stackLayout;horizontal=1;startSize=26;horizontalStack=0;resizeParent=1;resizeParentMax=0;resizeLast=0;collapsible=1;marginBottom=0;align=center;fontSize=14;" parent="1" vertex="1"><mxGeometry x="640" y="-270" width="160" height="126" as="geometry"/></mxCell><mxCell id="QZWZNDZkbE295jT6XIFR-55" value="&lt;u&gt;review_id&lt;/u&gt;" style="text;html=1;resizable=0;autosize=1;align=left;verticalAlign=middle;points=[];fillColor=none;strokeColor=none;rounded=0;" parent="QZWZNDZkbE295jT6XIFR-54" vertex="1"><mxGeometry y="26" width="160" height="20" as="geometry"/></mxCell><mxCell id="QZWZNDZkbE295jT6XIFR-56" value="professionalism" style="text;html=1;resizable=0;autosize=1;align=left;verticalAlign=middle;points=[];fillColor=none;strokeColor=none;rounded=0;" parent="QZWZNDZkbE295jT6XIFR-54" vertex="1"><mxGeometry y="46" width="160" height="20" as="geometry"/></mxCell><mxCell id="QZWZNDZkbE295jT6XIFR-57" value="communication" style="text;html=1;resizable=0;autosize=1;align=left;verticalAlign=middle;points=[];fillColor=none;strokeColor=none;rounded=0;" parent="QZWZNDZkbE295jT6XIFR-54" vertex="1"><mxGeometry y="66" width="160" height="20" as="geometry"/></mxCell><mxCell id="QZWZNDZkbE295jT6XIFR-58" value="cleanliness" style="text;html=1;resizable=0;autosize=1;align=left;verticalAlign=middle;points=[];fillColor=none;strokeColor=none;rounded=0;" parent="QZWZNDZkbE295jT6XIFR-54" vertex="1"><mxGeometry y="86" width="160" height="20" as="geometry"/></mxCell><mxCell id="QZWZNDZkbE295jT6XIFR-64" value="value" style="text;html=1;resizable=0;autosize=1;align=left;verticalAlign=middle;points=[];fillColor=none;strokeColor=none;rounded=0;" parent="QZWZNDZkbE295jT6XIFR-54" vertex="1"><mxGeometry y="106" width="160" height="20" as="geometry"/></mxCell><mxCell id="QZWZNDZkbE295jT6XIFR-65" value="Payment" style="swimlane;fontStyle=0;childLayout=stackLayout;horizontal=1;startSize=26;horizontalStack=0;resizeParent=1;resizeParentMax=0;resizeLast=0;collapsible=1;marginBottom=0;align=center;fontSize=14;" parent="1" vertex="1"><mxGeometry x="680" y="480" width="160" height="216" as="geometry"/></mxCell><mxCell id="QZWZNDZkbE295jT6XIFR-66" value="&lt;u&gt;invoice_id&lt;/u&gt;" style="text;html=1;resizable=0;autosize=1;align=left;verticalAlign=middle;points=[];fillColor=none;strokeColor=none;rounded=0;" parent="QZWZNDZkbE295jT6XIFR-65" vertex="1"><mxGeometry y="26" width="160" height="20" as="geometry"/></mxCell><mxCell id="QZWZNDZkbE295jT6XIFR-67" value="patient_id" style="text;html=1;resizable=0;autosize=1;align=left;verticalAlign=middle;points=[];fillColor=none;strokeColor=none;rounded=0;" parent="QZWZNDZkbE295jT6XIFR-65" vertex="1"><mxGeometry y="46" width="160" height="20" as="geometry"/></mxCell><mxCell id="QZWZNDZkbE295jT6XIFR-68" value="appointement_id" style="text;html=1;resizable=0;autosize=1;align=left;verticalAlign=middle;points=[];fillColor=none;strokeColor=none;rounded=0;" parent="QZWZNDZkbE295jT6XIFR-65" vertex="1"><mxGeometry y="66" width="160" height="20" as="geometry"/></mxCell><mxCell id="QZWZNDZkbE295jT6XIFR-71" value="&lt;span style=&quot;color: rgb(0 , 0 , 0) ; font-family: &amp;#34;helvetica&amp;#34; ; font-size: 12px ; font-style: normal ; font-weight: 400 ; letter-spacing: normal ; text-align: left ; text-indent: 0px ; text-transform: none ; word-spacing: 0px ; background-color: rgb(248 , 249 , 250)&quot;&gt;appointment_procedure_id&lt;/span&gt;" style="text;whiteSpace=wrap;html=1;" parent="QZWZNDZkbE295jT6XIFR-65" vertex="1"><mxGeometry y="86" width="160" height="30" as="geometry"/></mxCell><mxCell id="QZWZNDZkbE295jT6XIFR-80" value="patient_charge" style="text;html=1;resizable=0;autosize=1;align=left;verticalAlign=middle;points=[];fillColor=none;strokeColor=none;rounded=0;" parent="QZWZNDZkbE295jT6XIFR-65" vertex="1"><mxGeometry y="116" width="160" height="20" as="geometry"/></mxCell><mxCell id="QZWZNDZkbE295jT6XIFR-84" value="insurance_charge" style="text;html=1;resizable=0;autosize=1;align=left;verticalAlign=middle;points=[];fillColor=none;strokeColor=none;rounded=0;" parent="QZWZNDZkbE295jT6XIFR-65" vertex="1"><mxGeometry y="136" width="160" height="20" as="geometry"/></mxCell><mxCell id="QZWZNDZkbE295jT6XIFR-82" value="total_charge" style="text;html=1;resizable=0;autosize=1;align=left;verticalAlign=middle;points=[];fillColor=none;strokeColor=none;rounded=0;" parent="QZWZNDZkbE295jT6XIFR-65" vertex="1"><mxGeometry y="156" width="160" height="20" as="geometry"/></mxCell><mxCell id="QZWZNDZkbE295jT6XIFR-85" value="insurance_claim_id" style="text;html=1;resizable=0;autosize=1;align=left;verticalAlign=middle;points=[];fillColor=none;strokeColor=none;rounded=0;" parent="QZWZNDZkbE295jT6XIFR-65" vertex="1"><mxGeometry y="176" width="160" height="20" as="geometry"/></mxCell><mxCell id="QZWZNDZkbE295jT6XIFR-88" value="payment_type" style="text;html=1;resizable=0;autosize=1;align=left;verticalAlign=middle;points=[];fillColor=none;strokeColor=none;rounded=0;" parent="QZWZNDZkbE295jT6XIFR-65" vertex="1"><mxGeometry y="196" width="160" height="20" as="geometry"/></mxCell><mxCell id="hoCRfOwyR8ru-IddkG8W-45" value="Invoice" style="swimlane;fontStyle=0;childLayout=stackLayout;horizontal=1;startSize=26;horizontalStack=0;resizeParent=1;resizeParentMax=0;resizeLast=0;collapsible=1;marginBottom=0;align=center;fontSize=14;" parent="1" vertex="1"><mxGeometry x="400" y="390" width="160" height="276" as="geometry"/></mxCell><mxCell id="QZWZNDZkbE295jT6XIFR-17" value="&lt;u&gt;invoice_id&lt;/u&gt;" style="text;html=1;resizable=0;autosize=1;align=left;verticalAlign=middle;points=[];fillColor=none;strokeColor=none;rounded=0;" parent="hoCRfOwyR8ru-IddkG8W-45" vertex="1"><mxGeometry y="26" width="160" height="20" as="geometry"/></mxCell><mxCell id="QZWZNDZkbE295jT6XIFR-31" value="patient_id" style="text;html=1;resizable=0;autosize=1;align=left;verticalAlign=middle;points=[];fillColor=none;strokeColor=none;rounded=0;" parent="hoCRfOwyR8ru-IddkG8W-45" vertex="1"><mxGeometry y="46" width="160" height="20" as="geometry"/></mxCell><mxCell id="QZWZNDZkbE295jT6XIFR-32" value="date_of_issue" style="text;html=1;resizable=0;autosize=1;align=left;verticalAlign=middle;points=[];fillColor=none;strokeColor=none;rounded=0;" parent="hoCRfOwyR8ru-IddkG8W-45" vertex="1"><mxGeometry y="66" width="160" height="20" as="geometry"/></mxCell><mxCell id="QZWZNDZkbE295jT6XIFR-33" value="contact_info" style="text;html=1;resizable=0;autosize=1;align=left;verticalAlign=middle;points=[];fillColor=none;strokeColor=none;rounded=0;" parent="hoCRfOwyR8ru-IddkG8W-45" vertex="1"><mxGeometry y="86" width="160" height="20" as="geometry"/></mxCell><mxCell id="QZWZNDZkbE295jT6XIFR-42" value="&lt;span style=&quot;color: rgb(0 , 0 , 0) ; font-family: &amp;#34;helvetica&amp;#34; ; font-size: 12px ; font-style: normal ; font-weight: 400 ; letter-spacing: normal ; text-align: center ; text-indent: 0px ; text-transform: none ; word-spacing: 0px ; background-color: rgb(248 , 249 , 250) ; display: inline ; float: none&quot;&gt;&lt;span style=&quot;white-space: pre&quot;&gt;&#9;&lt;/span&gt;email&lt;/span&gt;" style="text;whiteSpace=wrap;html=1;" parent="hoCRfOwyR8ru-IddkG8W-45" vertex="1"><mxGeometry y="106" width="160" height="30" as="geometry"/></mxCell><mxCell id="QZWZNDZkbE295jT6XIFR-48" value="&lt;div style=&quot;text-align: center&quot;&gt;&lt;span&gt;&lt;font face=&quot;helvetica&quot;&gt;&lt;span style=&quot;white-space: pre&quot;&gt;&#9;&lt;/span&gt;{phone_numbers}&lt;/font&gt;&lt;/span&gt;&lt;/div&gt;" style="text;whiteSpace=wrap;html=1;" parent="hoCRfOwyR8ru-IddkG8W-45" vertex="1"><mxGeometry y="136" width="160" height="30" as="geometry"/></mxCell><mxCell id="QZWZNDZkbE295jT6XIFR-47" value="&lt;span style=&quot;color: rgb(0 , 0 , 0) ; font-family: &amp;#34;helvetica&amp;#34; ; font-size: 12px ; font-style: normal ; font-weight: 400 ; letter-spacing: normal ; text-align: center ; text-indent: 0px ; text-transform: none ; word-spacing: 0px ; background-color: rgb(248 , 249 , 250) ; display: inline ; float: none&quot;&gt;&lt;span style=&quot;white-space: pre&quot;&gt;&#9;&lt;/span&gt;address&lt;/span&gt;" style="text;whiteSpace=wrap;html=1;" parent="hoCRfOwyR8ru-IddkG8W-45" vertex="1"><mxGeometry y="166" width="160" height="30" as="geometry"/></mxCell><mxCell id="QZWZNDZkbE295jT6XIFR-46" value="&lt;span style=&quot;white-space: pre&quot;&gt;&lt;span style=&quot;white-space: pre&quot;&gt;&#9;&lt;/span&gt;&#9;&lt;/span&gt;house_number" style="text;html=1;resizable=0;autosize=1;align=left;verticalAlign=middle;points=[];fillColor=none;strokeColor=none;rounded=0;" parent="hoCRfOwyR8ru-IddkG8W-45" vertex="1"><mxGeometry y="196" width="160" height="20" as="geometry"/></mxCell><mxCell id="QZWZNDZkbE295jT6XIFR-45" value="&lt;span style=&quot;white-space: pre&quot;&gt;&lt;span style=&quot;white-space: pre&quot;&gt;&#9;&lt;/span&gt;&#9;&lt;/span&gt;street" style="text;html=1;resizable=0;autosize=1;align=left;verticalAlign=middle;points=[];fillColor=none;strokeColor=none;rounded=0;" parent="hoCRfOwyR8ru-IddkG8W-45" vertex="1"><mxGeometry y="216" width="160" height="20" as="geometry"/></mxCell><mxCell id="QZWZNDZkbE295jT6XIFR-44" value="&lt;span style=&quot;white-space: pre&quot;&gt;&lt;span style=&quot;white-space: pre&quot;&gt;&#9;&lt;/span&gt;&#9;&lt;/span&gt;city" style="text;html=1;resizable=0;autosize=1;align=left;verticalAlign=middle;points=[];fillColor=none;strokeColor=none;rounded=0;" parent="hoCRfOwyR8ru-IddkG8W-45" vertex="1"><mxGeometry y="236" width="160" height="20" as="geometry"/></mxCell><mxCell id="QZWZNDZkbE295jT6XIFR-43" value="&lt;span style=&quot;white-space: pre&quot;&gt;&lt;span style=&quot;white-space: pre&quot;&gt;&#9;&lt;/span&gt;&#9;&lt;/span&gt;province" style="text;html=1;resizable=0;autosize=1;align=left;verticalAlign=middle;points=[];fillColor=none;strokeColor=none;rounded=0;" parent="hoCRfOwyR8ru-IddkG8W-45" vertex="1"><mxGeometry y="256" width="160" height="20" as="geometry"/></mxCell><mxCell id="QZWZNDZkbE295jT6XIFR-90" value="" style="edgeStyle=entityRelationEdgeStyle;fontSize=12;html=1;endArrow=ERzeroToMany;startArrow=ERmandOne;rounded=0;exitX=1;exitY=0.75;exitDx=0;exitDy=0;" parent="1" source="hoCRfOwyR8ru-IddkG8W-80" target="QZWZNDZkbE295jT6XIFR-48" edge="1"><mxGeometry width="100" height="100" relative="1" as="geometry"><mxPoint x="590" y="320" as="sourcePoint"/><mxPoint x="690" y="220" as="targetPoint"/></mxGeometry></mxCell><mxCell id="QZWZNDZkbE295jT6XIFR-91" value="" style="edgeStyle=entityRelationEdgeStyle;fontSize=12;html=1;endArrow=ERzeroToMany;startArrow=ERmandOne;rounded=0;exitX=1.006;exitY=0.2;exitDx=0;exitDy=0;exitPerimeter=0;fontStyle=1" parent="1" source="hoCRfOwyR8ru-IddkG8W-130" target="hoCRfOwyR8ru-IddkG8W-144" edge="1"><mxGeometry width="100" height="100" relative="1" as="geometry"><mxPoint x="360" y="150" as="sourcePoint"/><mxPoint x="480" y="168" as="targetPoint"/></mxGeometry></mxCell><mxCell id="cwzBD0Sbq_DCRRP-pXD1-24" value="has" style="edgeLabel;html=1;align=center;verticalAlign=middle;resizable=0;points=[];" parent="QZWZNDZkbE295jT6XIFR-91" vertex="1" connectable="0"><mxGeometry x="-0.0282" y="1" relative="1" as="geometry"><mxPoint as="offset"/></mxGeometry></mxCell><mxCell id="QZWZNDZkbE295jT6XIFR-92" value="" style="edgeStyle=entityRelationEdgeStyle;fontSize=12;html=1;endArrow=ERmandOne;startArrow=ERmandOne;rounded=0;exitX=1.016;exitY=0.218;exitDx=0;exitDy=0;exitPerimeter=0;entryX=-0.002;entryY=0.55;entryDx=0;entryDy=0;entryPerimeter=0;" parent="1" source="hoCRfOwyR8ru-IddkG8W-135" target="QZWZNDZkbE295jT6XIFR-15" edge="1"><mxGeometry width="100" height="100" relative="1" as="geometry"><mxPoint x="590" y="430" as="sourcePoint"/><mxPoint x="690" y="330" as="targetPoint"/></mxGeometry></mxCell><mxCell id="cwzBD0Sbq_DCRRP-pXD1-26" value="follows" style="edgeLabel;html=1;align=center;verticalAlign=middle;resizable=0;points=[];" parent="QZWZNDZkbE295jT6XIFR-92" vertex="1" connectable="0"><mxGeometry x="-0.0078" y="-2" relative="1" as="geometry"><mxPoint as="offset"/></mxGeometry></mxCell><mxCell id="QZWZNDZkbE295jT6XIFR-94" value="" style="edgeStyle=entityRelationEdgeStyle;fontSize=12;html=1;endArrow=ERzeroToMany;startArrow=ERmandOne;rounded=0;exitX=0.994;exitY=0.35;exitDx=0;exitDy=0;exitPerimeter=0;" parent="1" source="QZWZNDZkbE295jT6XIFR-44" target="QZWZNDZkbE295jT6XIFR-67" edge="1"><mxGeometry width="100" height="100" relative="1" as="geometry"><mxPoint x="1041.92" y="292.1199999999999" as="sourcePoint"/><mxPoint x="1190" y="310" as="targetPoint"/></mxGeometry></mxCell><mxCell id="QZWZNDZkbE295jT6XIFR-96" value="" style="edgeStyle=entityRelationEdgeStyle;fontSize=12;html=1;endArrow=ERmandOne;startArrow=ERmandOne;rounded=0;exitX=1;exitY=1;exitDx=0;exitDy=0;" parent="1" source="QZWZNDZkbE295jT6XIFR-47" target="QZWZNDZkbE295jT6XIFR-2" edge="1"><mxGeometry width="100" height="100" relative="1" as="geometry"><mxPoint x="1110" y="300" as="sourcePoint"/><mxPoint x="690" y="220" as="targetPoint"/></mxGeometry></mxCell><mxCell id="cwzBD0Sbq_DCRRP-pXD1-38" value="Invoice_Fee_Charge" style="edgeLabel;html=1;align=center;verticalAlign=middle;resizable=0;points=[];" parent="QZWZNDZkbE295jT6XIFR-96" vertex="1" connectable="0"><mxGeometry x="-0.0306" relative="1" as="geometry"><mxPoint as="offset"/></mxGeometry></mxCell><mxCell id="cwzBD0Sbq_DCRRP-pXD1-2" value="" style="endArrow=ERmandOne;html=1;rounded=0;exitX=0.5;exitY=0;exitDx=0;exitDy=0;startArrow=ERzeroToMany;startFill=0;endFill=0;" parent="1" source="hoCRfOwyR8ru-IddkG8W-37" target="hoCRfOwyR8ru-IddkG8W-149" edge="1"><mxGeometry width="50" height="50" relative="1" as="geometry"><mxPoint x="470" y="380" as="sourcePoint"/><mxPoint x="520" y="330" as="targetPoint"/><Array as="points"><mxPoint x="480" y="250"/></Array></mxGeometry></mxCell><mxCell id="cwzBD0Sbq_DCRRP-pXD1-25" value="Results in" style="edgeLabel;html=1;align=center;verticalAlign=middle;resizable=0;points=[];" parent="cwzBD0Sbq_DCRRP-pXD1-2" vertex="1" connectable="0"><mxGeometry x="0.1954" relative="1" as="geometry"><mxPoint as="offset"/></mxGeometry></mxCell><mxCell id="cwzBD0Sbq_DCRRP-pXD1-3" value="Procedure_type" style="swimlane;fontStyle=0;childLayout=stackLayout;horizontal=1;startSize=26;horizontalStack=0;resizeParent=1;resizeParentMax=0;resizeLast=0;collapsible=1;marginBottom=0;align=center;fontSize=14;" parent="1" vertex="1"><mxGeometry x="930" y="40" width="160" height="56" as="geometry"/></mxCell><mxCell id="cwzBD0Sbq_DCRRP-pXD1-4" value="&lt;u&gt;procedure_code&lt;br&gt;procedure_type&lt;/u&gt;" style="text;html=1;resizable=0;autosize=1;align=left;verticalAlign=middle;points=[];fillColor=none;strokeColor=none;rounded=0;" parent="cwzBD0Sbq_DCRRP-pXD1-3" vertex="1"><mxGeometry y="26" width="160" height="30" as="geometry"/></mxCell><mxCell id="cwzBD0Sbq_DCRRP-pXD1-27" value="" style="edgeStyle=entityRelationEdgeStyle;fontSize=12;html=1;endArrow=ERmandOne;startArrow=ERzeroToMany;rounded=0;exitX=1.016;exitY=0.218;exitDx=0;exitDy=0;exitPerimeter=0;entryX=0.016;entryY=0.046;entryDx=0;entryDy=0;entryPerimeter=0;startFill=0;" parent="1" target="cwzBD0Sbq_DCRRP-pXD1-4" edge="1"><mxGeometry width="100" height="100" relative="1" as="geometry"><mxPoint x="870.0000000000002" y="109.6799999999999" as="sourcePoint"/><mxPoint x="997.0800000000004" y="136.3200000000001" as="targetPoint"/></mxGeometry></mxCell><mxCell id="cwzBD0Sbq_DCRRP-pXD1-28" value="Uses" style="edgeLabel;html=1;align=center;verticalAlign=middle;resizable=0;points=[];" parent="cwzBD0Sbq_DCRRP-pXD1-27" vertex="1" connectable="0"><mxGeometry x="-0.0078" y="-2" relative="1" as="geometry"><mxPoint as="offset"/></mxGeometry></mxCell><mxCell id="cwzBD0Sbq_DCRRP-pXD1-29" value="" style="edgeStyle=entityRelationEdgeStyle;fontSize=12;html=1;endArrow=ERzeroToMany;startArrow=ERmandOne;rounded=0;exitX=1;exitY=0.224;exitDx=0;exitDy=0;exitPerimeter=0;entryX=-0.002;entryY=0.552;entryDx=0;entryDy=0;entryPerimeter=0;endFill=0;" parent="1" source="QZWZNDZkbE295jT6XIFR-31" target="QZWZNDZkbE295jT6XIFR-29" edge="1"><mxGeometry width="100" height="100" relative="1" as="geometry"><mxPoint x="580.0000000000002" y="440" as="sourcePoint"/><mxPoint x="840" y="530" as="targetPoint"/></mxGeometry></mxCell><mxCell id="cwzBD0Sbq_DCRRP-pXD1-31" value="Procedure-Invoice" style="edgeLabel;html=1;align=center;verticalAlign=middle;resizable=0;points=[];" parent="cwzBD0Sbq_DCRRP-pXD1-29" vertex="1" connectable="0"><mxGeometry x="-0.0398" y="-2" relative="1" as="geometry"><mxPoint as="offset"/></mxGeometry></mxCell><mxCell id="cwzBD0Sbq_DCRRP-pXD1-32" value="Patient Records " style="swimlane;fontStyle=0;childLayout=stackLayout;horizontal=1;startSize=26;horizontalStack=0;resizeParent=1;resizeParentMax=0;resizeLast=0;collapsible=1;marginBottom=0;align=center;fontSize=14;" parent="1" vertex="1"><mxGeometry x="400" y="920" width="160" height="106" as="geometry"/></mxCell><mxCell id="cwzBD0Sbq_DCRRP-pXD1-34" value="professionalism" style="text;html=1;resizable=0;autosize=1;align=left;verticalAlign=middle;points=[];fillColor=none;strokeColor=none;rounded=0;" parent="cwzBD0Sbq_DCRRP-pXD1-32" vertex="1"><mxGeometry y="26" width="160" height="20" as="geometry"/></mxCell><mxCell id="cwzBD0Sbq_DCRRP-pXD1-35" value="Patient" style="text;html=1;resizable=0;autosize=1;align=left;verticalAlign=middle;points=[];fillColor=none;strokeColor=none;rounded=0;" parent="cwzBD0Sbq_DCRRP-pXD1-32" vertex="1"><mxGeometry y="46" width="160" height="20" as="geometry"/></mxCell><mxCell id="cwzBD0Sbq_DCRRP-pXD1-36" value="Employee" style="text;html=1;resizable=0;autosize=1;align=left;verticalAlign=middle;points=[];fillColor=none;strokeColor=none;rounded=0;" parent="cwzBD0Sbq_DCRRP-pXD1-32" vertex="1"><mxGeometry y="66" width="160" height="20" as="geometry"/></mxCell><mxCell id="cwzBD0Sbq_DCRRP-pXD1-37" value="Treatment&amp;nbsp;" style="text;html=1;resizable=0;autosize=1;align=left;verticalAlign=middle;points=[];fillColor=none;strokeColor=none;rounded=0;" parent="cwzBD0Sbq_DCRRP-pXD1-32" vertex="1"><mxGeometry y="86" width="160" height="20" as="geometry"/></mxCell><mxCell id="cwzBD0Sbq_DCRRP-pXD1-39" value="" style="edgeStyle=entityRelationEdgeStyle;fontSize=12;html=1;endArrow=ERzeroToMany;startArrow=ERmandOne;rounded=0;entryX=-0.003;entryY=0.917;entryDx=0;entryDy=0;entryPerimeter=0;" parent="1" source="hoCRfOwyR8ru-IddkG8W-96" target="cwzBD0Sbq_DCRRP-pXD1-35" edge="1"><mxGeometry width="100" height="100" relative="1" as="geometry"><mxPoint x="160.00000000000003" y="130" as="sourcePoint"/><mxPoint x="120" y="560" as="targetPoint"/></mxGeometry></mxCell><mxCell id="cwzBD0Sbq_DCRRP-pXD1-40" value="has" style="edgeLabel;html=1;align=center;verticalAlign=middle;resizable=0;points=[];" parent="cwzBD0Sbq_DCRRP-pXD1-39" vertex="1" connectable="0"><mxGeometry x="-0.0282" y="1" relative="1" as="geometry"><mxPoint as="offset"/></mxGeometry></mxCell><mxCell id="cwzBD0Sbq_DCRRP-pXD1-47" value="" style="edgeStyle=entityRelationEdgeStyle;fontSize=12;html=1;endArrow=ERzeroToMany;startArrow=ERmandOne;rounded=0;entryX=0.976;entryY=-0.008;entryDx=0;entryDy=0;entryPerimeter=0;exitX=0;exitY=0.5;exitDx=0;exitDy=0;" parent="1" source="hoCRfOwyR8ru-IddkG8W-70" target="cwzBD0Sbq_DCRRP-pXD1-36" edge="1"><mxGeometry width="100" height="100" relative="1" as="geometry"><mxPoint x="970" y="340" as="sourcePoint"/><mxPoint x="1139.52" y="918.1699999999997" as="targetPoint"/></mxGeometry></mxCell><mxCell id="cwzBD0Sbq_DCRRP-pXD1-49" value="Writes" style="edgeLabel;html=1;align=center;verticalAlign=middle;resizable=0;points=[];" parent="cwzBD0Sbq_DCRRP-pXD1-47" vertex="1" connectable="0"><mxGeometry x="-0.0338" y="1" relative="1" as="geometry"><mxPoint as="offset"/></mxGeometry></mxCell><mxCell id="cwzBD0Sbq_DCRRP-pXD1-51" value="" style="edgeStyle=entityRelationEdgeStyle;fontSize=12;html=1;endArrow=ERzeroToOne;startArrow=ERmandOne;rounded=0;exitX=1.011;exitY=0.867;exitDx=0;exitDy=0;exitPerimeter=0;fontStyle=1;entryX=-0.003;entryY=0.145;entryDx=0;entryDy=0;entryPerimeter=0;endFill=0;" parent="1" source="QZWZNDZkbE295jT6XIFR-23" target="QZWZNDZkbE295jT6XIFR-49" edge="1"><mxGeometry width="100" height="100" relative="1" as="geometry"><mxPoint x="880" y="224" as="sourcePoint"/><mxPoint x="1119.04" y="250.0000000000001" as="targetPoint"/></mxGeometry></mxCell><mxCell id="cwzBD0Sbq_DCRRP-pXD1-52" value="has" style="edgeLabel;html=1;align=center;verticalAlign=middle;resizable=0;points=[];" parent="cwzBD0Sbq_DCRRP-pXD1-51" vertex="1" connectable="0"><mxGeometry x="-0.0282" y="1" relative="1" as="geometry"><mxPoint as="offset"/></mxGeometry></mxCell><mxCell id="cwzBD0Sbq_DCRRP-pXD1-54" value="" style="edgeStyle=entityRelationEdgeStyle;fontSize=12;html=1;endArrow=ERzeroToMany;startArrow=ERmandOne;rounded=0;exitX=1;exitY=0.5;exitDx=0;exitDy=0;fontStyle=1;entryX=0.002;entryY=0.492;entryDx=0;entryDy=0;entryPerimeter=0;endFill=0;" parent="1" source="QZWZNDZkbE295jT6XIFR-71" target="QZWZNDZkbE295jT6XIFR-50" edge="1"><mxGeometry width="100" height="100" relative="1" as="geometry"><mxPoint x="890" y="510.00000000000017" as="sourcePoint"/><mxPoint x="967.54" y="683.3300000000002" as="targetPoint"/></mxGeometry></mxCell><mxCell id="cwzBD0Sbq_DCRRP-pXD1-55" value="has" style="edgeLabel;html=1;align=center;verticalAlign=middle;resizable=0;points=[];" parent="cwzBD0Sbq_DCRRP-pXD1-54" vertex="1" connectable="0"><mxGeometry x="-0.0282" y="1" relative="1" as="geometry"><mxPoint as="offset"/></mxGeometry></mxCell><mxCell id="cwzBD0Sbq_DCRRP-pXD1-56" value="" style="edgeStyle=entityRelationEdgeStyle;fontSize=12;html=1;endArrow=ERzeroToMany;startArrow=ERmandOne;rounded=0;exitX=1.013;exitY=0.036;exitDx=0;exitDy=0;exitPerimeter=0;entryX=-0.024;entryY=0.075;entryDx=0;entryDy=0;entryPerimeter=0;" parent="1" source="hoCRfOwyR8ru-IddkG8W-72" target="QZWZNDZkbE295jT6XIFR-57" edge="1"><mxGeometry width="100" height="100" relative="1" as="geometry"><mxPoint x="270" y="-230" as="sourcePoint"/><mxPoint x="510" y="12.5" as="targetPoint"/></mxGeometry></mxCell><mxCell id="cwzBD0Sbq_DCRRP-pXD1-57" value="" style="edgeStyle=entityRelationEdgeStyle;fontSize=12;html=1;endArrow=ERzeroToMany;startArrow=ERmandOne;rounded=0;exitX=1;exitY=0.75;exitDx=0;exitDy=0;" parent="1" edge="1"><mxGeometry width="100" height="100" relative="1" as="geometry"><mxPoint x="180" y="318.5" as="sourcePoint"/><mxPoint x="420" y="561" as="targetPoint"/></mxGeometry></mxCell><mxCell id="cwzBD0Sbq_DCRRP-pXD1-58" value="" style="edgeStyle=entityRelationEdgeStyle;fontSize=12;html=1;endArrow=ERzeroToMany;startArrow=ERmandOne;rounded=0;exitX=0;exitY=0.25;exitDx=0;exitDy=0;entryX=1.002;entryY=1.075;entryDx=0;entryDy=0;entryPerimeter=0;" parent="1" source="hoCRfOwyR8ru-IddkG8W-19" target="QZWZNDZkbE295jT6XIFR-56" edge="1"><mxGeometry width="100" height="100" relative="1" as="geometry"><mxPoint x="765.9200000000002" y="-62.52399999999943" as="sourcePoint"/><mxPoint x="1240" y="-330" as="targetPoint"/></mxGeometry></mxCell><mxCell id="15" value="setsetsetjkjldsa" style="shape=table;startSize=30;container=1;collapsible=1;childLayout=tableLayout;fixedRows=1;rowLines=0;fontStyle=1;align=center;resizeLast=1;" vertex="1" parent="1"><mxGeometry x="600" y="-480" width="180" height="190" as="geometry"/></mxCell><mxCell id="16" value="" style="shape=partialRectangle;collapsible=0;dropTarget=0;pointerEvents=0;fillColor=none;top=0;left=0;bottom=0;right=0;points=[[0,0.5],[1,0.5]];portConstraint=eastwest;" vertex="1" parent="15"><mxGeometry y="30" width="180" height="30" as="geometry"/></mxCell><mxCell id="17" value="PK" style="shape=partialRectangle;connectable=0;fillColor=none;top=0;left=0;bottom=0;right=0;fontStyle=1;overflow=hidden;" vertex="1" parent="16"><mxGeometry width="60" height="30" as="geometry"><mxRectangle width="60" height="30" as="alternateBounds"/></mxGeometry></mxCell><mxCell id="18" value="review_id" style="shape=partialRectangle;connectable=0;fillColor=none;top=0;left=0;bottom=0;right=0;align=left;spacingLeft=6;fontStyle=5;overflow=hidden;" vertex="1" parent="16"><mxGeometry x="60" width="120" height="30" as="geometry"><mxRectangle width="120" height="30" as="alternateBounds"/></mxGeometry></mxCell><mxCell id="19" value="" style="shape=partialRectangle;collapsible=0;dropTarget=0;pointerEvents=0;fillColor=none;top=0;left=0;bottom=1;right=0;points=[[0,0.5],[1,0.5]];portConstraint=eastwest;" vertex="1" parent="15"><mxGeometry y="60" width="180" height="30" as="geometry"/></mxCell><mxCell id="20" value="FK" style="shape=partialRectangle;connectable=0;fillColor=none;top=0;left=0;bottom=0;right=0;fontStyle=1;overflow=hidden;strokeColor=default;" vertex="1" parent="19"><mxGeometry width="60" height="30" as="geometry"><mxRectangle width="60" height="30" as="alternateBounds"/></mxGeometry></mxCell><mxCell id="21" value="PatientSSN" style="shape=partialRectangle;connectable=0;fillColor=none;top=0;left=0;bottom=0;right=0;align=left;spacingLeft=6;fontStyle=5;overflow=hidden;strokeColor=default;" vertex="1" parent="19"><mxGeometry x="60" width="120" height="30" as="geometry"><mxRectangle width="120" height="30" as="alternateBounds"/></mxGeometry></mxCell><mxCell id="31" value="" style="shape=partialRectangle;collapsible=0;dropTarget=0;pointerEvents=0;fillColor=none;top=0;left=0;bottom=0;right=0;points=[[0,0.5],[1,0.5]];portConstraint=eastwest;" vertex="1" parent="15"><mxGeometry y="90" width="180" height="30" as="geometry"/></mxCell><mxCell id="32" value="PK" style="shape=partialRectangle;connectable=0;fillColor=none;top=0;left=0;bottom=0;right=0;fontStyle=1;overflow=hidden;" vertex="1" parent="31"><mxGeometry width="60" height="30" as="geometry"><mxRectangle width="60" height="30" as="alternateBounds"/></mxGeometry></mxCell><mxCell id="33" value="review_id" style="shape=partialRectangle;connectable=0;fillColor=none;top=0;left=0;bottom=0;right=0;align=left;spacingLeft=6;fontStyle=5;overflow=hidden;" vertex="1" parent="31"><mxGeometry x="60" width="120" height="30" as="geometry"><mxRectangle width="120" height="30" as="alternateBounds"/></mxGeometry></mxCell><mxCell id="22" value="" style="shape=partialRectangle;collapsible=0;dropTarget=0;pointerEvents=0;fillColor=none;top=0;left=0;bottom=0;right=0;points=[[0,0.5],[1,0.5]];portConstraint=eastwest;" vertex="1" parent="15"><mxGeometry y="120" width="180" height="30" as="geometry"/></mxCell><mxCell id="23" value="" style="shape=partialRectangle;connectable=0;fillColor=none;top=0;left=0;bottom=0;right=0;editable=1;overflow=hidden;" vertex="1" parent="22"><mxGeometry width="60" height="30" as="geometry"><mxRectangle width="60" height="30" as="alternateBounds"/></mxGeometry></mxCell><mxCell id="24" value="Row 3" style="shape=partialRectangle;connectable=0;fillColor=none;top=0;left=0;bottom=0;right=0;align=left;spacingLeft=6;overflow=hidden;" vertex="1" parent="22"><mxGeometry x="60" width="120" height="30" as="geometry"><mxRectangle width="120" height="30" as="alternateBounds"/></mxGeometry></mxCell><mxCell id="25" value="" style="shape=partialRectangle;collapsible=0;dropTarget=0;pointerEvents=0;fillColor=none;top=0;left=0;bottom=0;right=0;points=[[0,0.5],[1,0.5]];portConstraint=eastwest;" vertex="1" parent="15"><mxGeometry y="150" width="180" height="30" as="geometry"/></mxCell><mxCell id="26" value="" style="shape=partialRectangle;connectable=0;fillColor=none;top=0;left=0;bottom=0;right=0;editable=1;overflow=hidden;" vertex="1" parent="25"><mxGeometry width="60" height="30" as="geometry"><mxRectangle width="60" height="30" as="alternateBounds"/></mxGeometry></mxCell><mxCell id="27" value="Row 4" style="shape=partialRectangle;connectable=0;fillColor=none;top=0;left=0;bottom=0;right=0;align=left;spacingLeft=6;overflow=hidden;" vertex="1" parent="25"><mxGeometry x="60" width="120" height="30" as="geometry"><mxRectangle width="120" height="30" as="alternateBounds"/></mxGeometry></mxCell></root></mxGraphModel></diagram></mxfile>